<?xml version="1.0" standalone="no"?>
<!DOCTYPE svg PUBLIC "-//W3C//DTD SVG 20010904//EN"
 "http://www.w3.org/TR/2001/REC-SVG-20010904/DTD/svg10.dtd">
<svg version="1.0" xmlns="http://www.w3.org/2000/svg"
 width="238.000000pt" height="110.000000pt" viewBox="0 0 238.000000 110.000000"
 preserveAspectRatio="xMidYMid meet">

<g transform="translate(0.000000,110.000000) scale(0.100000,-0.100000)"
fill="#000000" stroke="none">
<path d="M87 763 c-27 -43 -57 -99 -57 -108 0 -3 72 -5 161 -5 125 0 160 -3
156 -12 -2 -7 -46 -87 -96 -178 l-91 -165 77 -3 c63 -2 80 0 90 14 6 9 47 80
89 158 43 77 99 179 126 226 26 46 48 90 48 97 0 10 -50 13 -240 13 l-240 0
-23 -37z"/>
<path d="M950 686 c0 -8 10 -16 23 -18 20 -3 22 -9 27 -82 3 -49 10 -81 17
-83 9 -3 13 19 15 79 3 77 5 83 26 86 12 2 22 10 22 18 0 11 -15 14 -65 14
-50 0 -65 -3 -65 -14z"/>
<path d="M1130 680 c-16 -16 -20 -33 -20 -79 0 -52 3 -62 26 -80 30 -24 55
-26 87 -10 33 18 37 28 37 96 0 53 -3 64 -22 77 -31 22 -84 20 -108 -4z m94
-52 c13 -53 -5 -90 -42 -86 -25 3 -27 7 -30 51 -4 54 11 79 42 75 15 -2 24
-14 30 -40z"/>
<path d="M1290 685 c0 -9 9 -15 25 -15 24 0 24 -2 27 -82 2 -66 6 -83 18 -83
12 0 16 17 18 83 3 80 3 82 27 82 16 0 25 6 25 15 0 12 -14 15 -70 15 -56 0
-70 -3 -70 -15z"/>
<path d="M1497 693 c-2 -5 -17 -46 -32 -91 -18 -57 -24 -87 -17 -94 7 -7 16
-2 27 16 23 35 67 35 89 1 9 -14 22 -22 30 -19 14 5 5 37 -46 167 -10 25 -41
37 -51 20z m45 -93 c2 -20 -2 -26 -19 -28 -24 -4 -29 11 -16 56 5 19 8 21 19
10 7 -7 14 -24 16 -38z"/>
<path d="M1650 605 c0 -91 1 -95 23 -101 41 -10 102 -1 102 16 0 11 -13 16
-47 18 l-48 3 0 80 c0 64 -3 79 -15 79 -12 0 -15 -17 -15 -95z"/>
<path d="M1681 424 c0 -11 3 -14 6 -6 3 7 2 16 -1 19 -3 4 -6 -2 -5 -13z"/>
<path d="M1796 407 c3 -10 9 -15 12 -12 3 3 0 11 -7 18 -10 9 -11 8 -5 -6z"/>
</g>
</svg>
